<svg xmlns="http://www.w3.org/2000/svg" viewBox="0 0 512 512"><title>Playground</title><g id="Playground"><g id="Playground-2" data-name="Playground"><path d="M421.1735,366.4748,318.5717,251.1317a9.4278,9.4278,0,0,0-7.0407-3.1689l-43.3125-.0819V191.37h18.5508a9.45,9.45,0,0,0,5.5-17.1333l-94.437-67.6206a9.448,9.448,0,0,0-11.0035,0L92.3855,174.23a9.45,9.45,0,0,0,5.5,17.1333h18.5472V407.1512h18.9V298.4447h7.4187V407.1512h18.9V381.57h61.3458v25.5816h18.9V298.4447h7.4187V407.1512h18.9V299.8559h24.1128L382.3241,401.04a9.45,9.45,0,0,0,6.5079,3.1527c.1863.01.3654.0162.5517.0162a9.4551,9.4551,0,0,0,6.2811-2.3913l24.7275-22A9.45,9.45,0,0,0,421.1735,366.4748ZM135.3326,191.3636H249.3158v88.1811H232.4471v-24.63a40.1216,40.1216,0,1,0-80.2431,0v24.63H135.3363V191.3636ZM161.654,362.67V338.9627h61.3467V362.67Zm61.3431-42.6069H161.654V298.4474h61.3467v21.6153Zm167.1678,61.353-86.53-97.2909a9.4488,9.4488,0,0,0-7.06-3.1689H269.3624v-14.175l37.9009.0693,93.5072,105.1281Z"/></g></g></svg>